# Tiled2Unity generated file. Do not modify by hand.
# Wavefront file for 'prueba_mesh_0002.obj'

# Vertices (Count = 64)
v -12 -5 0
v -14 -5 0
v -14 -3 0
v -12 -3 0
v -35 -5 0
v -37 -5 0
v -37 -3 0
v -35 -3 0
v -4 -6 0
v -6 -6 0
v -6 -4 0
v -4 -4 0
v -46 -6 0
v -48 -6 0
v -48 -4 0
v -46 -4 0
v -22 -7 0
v -24 -7 0
v -24 -5 0
v -22 -5 0
v -16 -11 0
v -18 -11 0
v -18 -9 0
v -16 -9 0
v -40 -11 0
v -42 -11 0
v -42 -9 0
v -40 -9 0
v -32 -13 0
v -34 -13 0
v -34 -11 0
v -32 -11 0
v -8 -15 0
v -10 -15 0
v -10 -13 0
v -8 -13 0
v -23 -18 0
v -25 -18 0
v -25 -16 0
v -23 -16 0
v -47 -18 0
v -49 -18 0
v -49 -16 0
v -47 -16 0
v -37 -20 0
v -39 -20 0
v -39 -18 0
v -37 -18 0
v -15 -23 0
v -17 -23 0
v -17 -21 0
v -15 -21 0
v -3 -24 0
v -5 -24 0
v -5 -22 0
v -3 -22 0
v -43 -25 0
v -45 -25 0
v -45 -23 0
v -43 -23 0
v -31 -26 0
v -33 -26 0
v -33 -24 0
v -31 -24 0

# Texture cooridinates (Count = 4)
vt 0 0.25
vt 0.04545455 0.25
vt 0.04545455 0.3333333
vt 0 0.3333333

# Normal
vn 0 0 -1

# Mesh description
g prueba_mesh_0002

# Faces
f 1/1/1 2/2/1 3/3/1 4/4/1
f 5/1/1 6/2/1 7/3/1 8/4/1
f 9/1/1 10/2/1 11/3/1 12/4/1
f 13/1/1 14/2/1 15/3/1 16/4/1
f 17/1/1 18/2/1 19/3/1 20/4/1
f 21/1/1 22/2/1 23/3/1 24/4/1
f 25/1/1 26/2/1 27/3/1 28/4/1
f 29/1/1 30/2/1 31/3/1 32/4/1
f 33/1/1 34/2/1 35/3/1 36/4/1
f 37/1/1 38/2/1 39/3/1 40/4/1
f 41/1/1 42/2/1 43/3/1 44/4/1
f 45/1/1 46/2/1 47/3/1 48/4/1
f 49/1/1 50/2/1 51/3/1 52/4/1
f 53/1/1 54/2/1 55/3/1 56/4/1
f 57/1/1 58/2/1 59/3/1 60/4/1
f 61/1/1 62/2/1 63/3/1 64/4/1

