# Tiled2Unity generated file. Do not modify by hand.
# Wavefront file for 'prueba_mesh_0005.obj'

# Vertices (Count = 104)
v 0 -18 0
v -4 -18 0
v -4 -14 0
v 0 -14 0
v -4 -18 0
v -8 -18 0
v -8 -14 0
v -4 -14 0
v -8 -18 0
v -12 -18 0
v -12 -14 0
v -8 -14 0
v -11 -18 0
v -15 -18 0
v -15 -14 0
v -11 -14 0
v -15 -18 0
v -19 -18 0
v -19 -14 0
v -15 -14 0
v -19 -18 0
v -23 -18 0
v -23 -14 0
v -19 -14 0
v -23 -18 0
v -27 -18 0
v -27 -14 0
v -23 -14 0
v -30 -18 0
v -34 -18 0
v -34 -14 0
v -30 -14 0
v -34 -18 0
v -38 -18 0
v -38 -14 0
v -34 -14 0
v -38 -18 0
v -42 -18 0
v -42 -14 0
v -38 -14 0
v -42 -18 0
v -46 -18 0
v -46 -14 0
v -42 -14 0
v -46 -18 0
v -50 -18 0
v -50 -14 0
v -46 -14 0
v 0 -22 0
v -4 -22 0
v -4 -18 0
v 0 -18 0
v -3 -22 0
v -7 -22 0
v -7 -18 0
v -3 -18 0
v -7 -22 0
v -11 -22 0
v -11 -18 0
v -7 -18 0
v -10 -22 0
v -14 -22 0
v -14 -18 0
v -10 -18 0
v -12 -22 0
v -16 -22 0
v -16 -18 0
v -12 -18 0
v -16 -22 0
v -20 -22 0
v -20 -18 0
v -16 -18 0
v -20 -22 0
v -24 -22 0
v -24 -18 0
v -20 -18 0
v -24 -22 0
v -28 -22 0
v -28 -18 0
v -24 -18 0
v -27 -22 0
v -31 -22 0
v -31 -18 0
v -27 -18 0
v -31 -22 0
v -35 -22 0
v -35 -18 0
v -31 -18 0
v -36 -22 0
v -40 -22 0
v -40 -18 0
v -36 -18 0
v -40 -22 0
v -44 -22 0
v -44 -18 0
v -40 -18 0
v -45 -22 0
v -49 -22 0
v -49 -18 0
v -45 -18 0
v -46 -22 0
v -50 -22 0
v -50 -18 0
v -46 -18 0

# Texture cooridinates (Count = 26)
vt 0 0.9375
vt 0.0625 0.9375
vt 0.0625 1
vt 0 1
vt 0.125 0.9375
vt 0.125 1
vt 0.1875 0.9375
vt 0.1875 1
vt 0.25 0.9375
vt 0.25 1
vt 0.3125 0.9375
vt 0.3125 1
vt 0.375 0.9375
vt 0.375 1
vt 0.4375 0.9375
vt 0.4375 1
vt 0 0.875
vt 0.0625 0.875
vt 0.125 0.875
vt 0.1875 0.875
vt 0.25 0.875
vt 0.3125 0.875
vt 0.375 0.875
vt 0.4375 0.875
vt 0.5 0.875
vt 0.5 0.9375

# Normal
vn 0 0 -1

# Mesh description
g prueba_mesh_0005

# Faces
f 1/1/1 2/2/1 3/3/1 4/4/1
f 5/2/1 6/5/1 7/6/1 8/3/1
f 9/5/1 10/7/1 11/8/1 12/6/1
f 13/7/1 14/9/1 15/10/1 16/8/1
f 17/9/1 18/11/1 19/12/1 20/10/1
f 21/11/1 22/13/1 23/14/1 24/12/1
f 25/13/1 26/15/1 27/16/1 28/14/1
f 29/1/1 30/2/1 31/3/1 32/4/1
f 33/2/1 34/5/1 35/6/1 36/3/1
f 37/5/1 38/7/1 39/8/1 40/6/1
f 41/7/1 42/9/1 43/10/1 44/8/1
f 45/9/1 46/11/1 47/12/1 48/10/1
f 49/17/1 50/18/1 51/2/1 52/1/1
f 53/18/1 54/19/1 55/5/1 56/2/1
f 57/19/1 58/20/1 59/7/1 60/5/1
f 61/20/1 62/21/1 63/9/1 64/7/1
f 65/21/1 66/22/1 67/11/1 68/9/1
f 69/22/1 70/23/1 71/13/1 72/11/1
f 73/23/1 74/24/1 75/15/1 76/13/1
f 77/24/1 78/25/1 79/26/1 80/15/1
f 81/17/1 82/18/1 83/2/1 84/1/1
f 85/18/1 86/19/1 87/5/1 88/2/1
f 89/19/1 90/20/1 91/7/1 92/5/1
f 93/20/1 94/21/1 95/9/1 96/7/1
f 97/21/1 98/22/1 99/11/1 100/9/1
f 101/21/1 102/22/1 103/11/1 104/9/1

