# Tiled2Unity generated file. Do not modify by hand.
# Wavefront file for 'prueba_mesh_0007.obj'

# Vertices (Count = 120)
v -18 -26 0
v -20 -26 0
v -20 -24 0
v -18 -24 0
v -20 -26 0
v -22 -26 0
v -22 -24 0
v -20 -24 0
v -22 -26 0
v -24 -26 0
v -24 -24 0
v -22 -24 0
v -24 -26 0
v -26 -26 0
v -26 -24 0
v -24 -24 0
v -26 -26 0
v -28 -26 0
v -28 -24 0
v -26 -24 0
v 0 -28 0
v -2 -28 0
v -2 -26 0
v 0 -26 0
v -2 -28 0
v -4 -28 0
v -4 -26 0
v -2 -26 0
v -3 -28 0
v -5 -28 0
v -5 -26 0
v -3 -26 0
v -4 -28 0
v -6 -28 0
v -6 -26 0
v -4 -26 0
v -5 -28 0
v -7 -28 0
v -7 -26 0
v -5 -26 0
v -6 -28 0
v -8 -28 0
v -8 -26 0
v -6 -26 0
v -7 -28 0
v -9 -28 0
v -9 -26 0
v -7 -26 0
v -8 -28 0
v -10 -28 0
v -10 -26 0
v -8 -26 0
v -9 -28 0
v -11 -28 0
v -11 -26 0
v -9 -26 0
v -10 -28 0
v -12 -28 0
v -12 -26 0
v -10 -26 0
v -11 -28 0
v -13 -28 0
v -13 -26 0
v -11 -26 0
v -12 -28 0
v -14 -28 0
v -14 -26 0
v -12 -26 0
v -13 -28 0
v -15 -28 0
v -15 -26 0
v -13 -26 0
v -14 -28 0
v -16 -28 0
v -16 -26 0
v -14 -26 0
v -15 -28 0
v -17 -28 0
v -17 -26 0
v -15 -26 0
v -16 -28 0
v -18 -28 0
v -18 -26 0
v -16 -26 0
v -18 -28 0
v -20 -28 0
v -20 -26 0
v -18 -26 0
v -26 -28 0
v -28 -28 0
v -28 -26 0
v -26 -26 0
v -28 -28 0
v -30 -28 0
v -30 -26 0
v -28 -26 0
v -30 -28 0
v -32 -28 0
v -32 -26 0
v -30 -26 0
v -36 -28 0
v -38 -28 0
v -38 -26 0
v -36 -26 0
v -38 -28 0
v -40 -28 0
v -40 -26 0
v -38 -26 0
v -44 -28 0
v -46 -28 0
v -46 -26 0
v -44 -26 0
v -46 -28 0
v -48 -28 0
v -48 -26 0
v -46 -26 0
v -48 -28 0
v -50 -28 0
v -50 -26 0
v -48 -26 0

# Texture cooridinates (Count = 14)
vt 0.04545455 0.3333333
vt 0.09090909 0.3333333
vt 0.09090909 0.4166667
vt 0.04545455 0.4166667
vt 0.1363636 0.4166667
vt 0.1363636 0.5
vt 0.09090909 0.5
vt 0.1363636 0.3333333
vt 0.04545455 0.5
vt 0.04545455 0.25
vt 0.09090909 0.25
vt 0.1363636 0.25
vt 0.1818182 0.4166667
vt 0.1818182 0.5

# Normal
vn 0 0 -1

# Mesh description
g prueba_mesh_0007

# Faces
f 1/1/1 2/2/1 3/3/1 4/4/1
f 5/3/1 6/5/1 7/6/1 8/7/1
f 9/3/1 10/5/1 11/6/1 12/7/1
f 13/3/1 14/5/1 15/6/1 16/7/1
f 17/2/1 18/8/1 19/5/1 20/3/1
f 21/4/1 22/3/1 23/7/1 24/9/1
f 25/3/1 26/5/1 27/6/1 28/7/1
f 29/3/1 30/5/1 31/6/1 32/7/1
f 33/3/1 34/5/1 35/6/1 36/7/1
f 37/3/1 38/5/1 39/6/1 40/7/1
f 41/3/1 42/5/1 43/6/1 44/7/1
f 45/3/1 46/5/1 47/6/1 48/7/1
f 49/3/1 50/5/1 51/6/1 52/7/1
f 53/3/1 54/5/1 55/6/1 56/7/1
f 57/3/1 58/5/1 59/6/1 60/7/1
f 61/3/1 62/5/1 63/6/1 64/7/1
f 65/3/1 66/5/1 67/6/1 68/7/1
f 69/3/1 70/5/1 71/6/1 72/7/1
f 73/3/1 74/5/1 75/6/1 76/7/1
f 77/3/1 78/5/1 79/6/1 80/7/1
f 81/3/1 82/5/1 83/6/1 84/7/1
f 85/10/1 86/11/1 87/2/1 88/1/1
f 89/11/1 90/12/1 91/8/1 92/2/1
f 93/3/1 94/5/1 95/6/1 96/7/1
f 97/5/1 98/13/1 99/14/1 100/6/1
f 101/4/1 102/3/1 103/7/1 104/9/1
f 105/5/1 106/13/1 107/14/1 108/6/1
f 109/4/1 110/3/1 111/7/1 112/9/1
f 113/3/1 114/5/1 115/6/1 116/7/1
f 117/5/1 118/13/1 119/14/1 120/6/1

